<?xml version="1.0" standalone="no"?><!DOCTYPE svg PUBLIC "-//W3C//DTD SVG 1.1//EN" "http://www.w3.org/Graphics/SVG/1.1/DTD/svg11.dtd"><svg t="1755237378234" class="icon" viewBox="0 0 1098 1024" version="1.1" xmlns="http://www.w3.org/2000/svg" p-id="82656" xmlns:xlink="http://www.w3.org/1999/xlink" width="214.453125" height="200"><path d="M744.767305 0C804.886016 0 853.616201 65.014016 853.616201 145.227666 853.616201 225.420361 804.886016 290.458368 744.767305 290.458368 684.65013 290.458368 635.918446 225.420361 635.918446 145.227666 635.919945 65.014016 684.65163 0 744.767305 0L744.767305 0ZM373.307611 0C433.426322 0 482.156507 65.014016 482.156507 145.227666 482.156507 225.420361 433.424823 290.458368 373.307611 290.458368 313.214391 290.458368 264.484206 225.420361 264.484206 145.227666 264.482706 65.014016 313.214391 0 373.307611 0L373.307611 0ZM108.848881 526.578359C48.730192 526.578359 0 461.565842 0 381.350693 0 301.135543 48.730192 236.121527 108.848881 236.121527 168.96757 236.121527 217.697755 301.137042 217.697755 381.350693 217.697755 461.565842 168.967567 526.578359 108.848881 526.578359L108.848881 526.578359ZM848.770267 1002.214766C791.357586 1037.021184 714.636105 1025.458981 642.905783 979.216128 598.235319 959.658752 524.070071 939.759945 447.447406 973.780187 433.32747 983.421111 419.012864 991.760677 404.647314 998.646199 343.543296 1027.967269 281.654528 1031.460937 233.39008 1002.214729 136.6455 943.547136 131.282948 775.517001 221.411547 626.892983 245.073591 587.875584 272.943579 554.08 302.980462 526.504997L303.25003 526.259419 303.324891 526.159067 303.447698 526.087205 303.519561 526.013806C348.512 484.83701 398.249984 457.604974 445.675886 447.766382 505.352777 429.465417 579.564471 423.168402 660.224366 454.06336 732.517742 477.407927 807.395803 538.877367 860.751799 626.894482 950.878903 775.517001 945.514862 943.547136 848.770267 1002.214766L848.770267 1002.214766ZM988.293961 526.504997C928.200741 526.504997 879.445102 461.490981 879.445102 381.275831 879.445102 301.060681 928.200741 236.046629 988.293961 236.046629 1048.412672 236.046629 1097.142857 301.060681 1097.142857 381.275831 1097.141358 461.490981 1048.411173 526.504997 988.293961 526.504997L988.293961 526.504997Z" fill="#FF7385" p-id="82657"></path></svg>